<?xml version="1.0" encoding="utf-8"?>
<svg viewBox="0 0 500 500" xmlns="http://www.w3.org/2000/svg">
  <ellipse style="stroke: rgb(0, 0, 0); stroke-width: 0px; fill: rgb(217, 116, 68);" cx="251.229" cy="290.044" rx="201.723" ry="201.723"/>
  <ellipse style="stroke: rgb(0, 0, 0); fill: rgb(255, 255, 255); stroke-opacity: 0;" cx="344.403" cy="219.625" rx="49.815" ry="49.815"/>
  <path style="stroke: rgb(255, 255, 255); stroke-opacity: 0; fill: rgb(58, 58, 58);" d="M 257.688 49.269 C 415.58 53.874 457.167 190.53 445.879 218.396 C 441.487 231.226 381.916 232.916 382.534 303.266 C 382.798 333.335 406.069 372.294 440.959 373.992 C 473.392 372.502 496.184 364.058 495.695 292.811 C 501.831 172.69 442.682 5.075 249.276 10.283 C 61.399 7.597 4.556 169.035 4.92 287.276 C 2.835 339.821 17.955 374.461 55.846 374.487 C 95.695 374.518 119.105 336.301 118.696 305.111 C 117.617 222.79 60.499 240.866 54.616 216.536 C 47.494 181.741 94.15 49.112 257.688 49.269 Z"/>
</svg>